<svg xmlns="http://www.w3.org/2000/svg" viewBox="0 0 32 32">
  <defs>
    <linearGradient id="g" x1="0" y1="0" x2="1" y2="1">
      <stop offset="0%" stop-color="#15803d"/>
      <stop offset="100%" stop-color="#0d9488"/>
    </linearGradient>
  </defs>
  <rect width="32" height="32" rx="8" fill="url(#g)"/>
  <path d="M16 6c-3 0-5 2-5 5 0 2 1 3 2 4-3 1-5 4-5 7 0 2 2 4 4 4 1 0 2 0 3-1l1-2c1-2 2-3 4-3s3 1 4 3l1 2c1 1 2 1 3 1 2 0 4-2 4-4 0-3-2-6-5-7 1-1 2-2 2-4 0-3-2-5-5-5zm0 3c1 0 2 1 2 2s-1 2-2 2-2-1-2-2 1-2 2-2z" fill="#fff"/>
</svg>
