<svg xmlns="http://www.w3.org/2000/svg" viewBox="0 0 32 32" fill="none">
  <defs>
    <linearGradient id="g" x1="0" y1="0" x2="1" y2="1">
      <stop offset="0%" stop-color="#10b981"/>
      <stop offset="100%" stop-color="#14b8a6"/>
    </linearGradient>
  </defs>
  <rect width="32" height="32" rx="8" fill="#09090b"/>
  <path d="M16 4C16 4 6 16 6 22C6 25.314 8.686 28 12 28C15.314 28 18 25.314 18 22C18 16 16 4 16 4Z" fill="url(#g)"/>
  <path d="M12 18C12 21.5 12 24 12 24" stroke="#09090b" stroke-width="1.2" stroke-linecap="round"/>
  <path d="M12 18C12 18 14.5 15 16 14" stroke="#09090b" stroke-width="1.2" stroke-linecap="round"/>
  <path d="M12 18C12 18 9.5 15 8 14" stroke="#09090b" stroke-width="1.2" stroke-linecap="round"/>
  <path d="M16 14C16 14 15 12 16 11C16 11 17 12 16 14Z" fill="#09090b"/>
</svg>
