<svg xmlns="http://www.w3.org/2000/svg" viewBox="0 0 240 48" fill="none">
  <defs>
    <linearGradient id="lg" x1="0" y1="0" x2="1" y2="1">
      <stop offset="0%" stop-color="#059669"/>
      <stop offset="100%" stop-color="#0d9488"/>
    </linearGradient>
  </defs>
  <!-- Droplet + sprout icon -->
  <g transform="translate(0, 0)">
    <path d="M24 4C24 4 6 22 6 32C6 38.627 11.373 44 18 44C24.627 44 30 38.627 30 32C30 22 24 4 24 4Z" fill="url(#lg)"/>
    <path d="M18 26C18 26 18 36 18 36" stroke="white" stroke-width="1.8" stroke-linecap="round"/>
    <path d="M18 26C18 26 22 22 24 20" stroke="white" stroke-width="1.8" stroke-linecap="round"/>
    <path d="M18 26C18 26 14 22 12 20" stroke="white" stroke-width="1.8" stroke-linecap="round"/>
    <path d="M24 20C24 20 22 16 24 14C24 14 26 16 24 20Z" fill="white"/>
  </g>
  <!-- Wordmark -->
  <text x="42" y="32" font-family="Sora, Inter, system-ui, sans-serif" font-weight="700" font-size="20" fill="#0c0a09" letter-spacing="-0.5">
    Hydro<tspan fill="url(#lg)">Gel</tspan>
  </text>
  <text x="42" y="44" font-family="Sora, Inter, system-ui, sans-serif" font-weight="500" font-size="8" fill="#78716c" letter-spacing="2">
    MAROC
  </text>
</svg>
